<?xml version="1.0" encoding="UTF-8"?>
<!DOCTYPE svg PUBLIC "-//W3C//DTD SVG 1.1//EN" "http://www.w3.org/Graphics/SVG/1.1/DTD/svg11.dtd">
<!-- Creator: CorelDRAW -->
<svg xmlns="http://www.w3.org/2000/svg" xml:space="preserve" width="99.8026mm" height="20.8897mm" version="1.1" style="shape-rendering:geometricPrecision; text-rendering:geometricPrecision; image-rendering:optimizeQuality; fill-rule:evenodd; clip-rule:evenodd"
viewBox="0 0 2193.76 459.18"
 xmlns:xlink="http://www.w3.org/1999/xlink"
 xmlns:xodm="http://www.corel.com/coreldraw/odm/2003">
 <defs>
  <style type="text/css">
   <![CDATA[
    .fil4 {fill:#264796;fill-rule:nonzero}
    .fil0 {fill:url(#id0)}
    .fil1 {fill:url(#id1)}
    .fil2 {fill:url(#id2)}
    .fil3 {fill:url(#id3)}
   ]]>
  </style>
  <linearGradient id="id0" gradientUnits="userSpaceOnUse" x1="353.33" y1="53.22" x2="683.95" y2="388.16">
   <stop offset="0" style="stop-opacity:1; stop-color:#006EC8"/>
   <stop offset="1" style="stop-opacity:1; stop-color:#1EB400"/>
  </linearGradient>
  <linearGradient id="id1" gradientUnits="userSpaceOnUse" xlink:href="#id0" x1="580.88" y1="358.05" x2="577.56" y2="77.89">
  </linearGradient>
  <linearGradient id="id2" gradientUnits="userSpaceOnUse" x1="202.3" y1="48.18" x2="361.49" y2="464.97">
   <stop offset="0" style="stop-opacity:1; stop-color:#006EC8"/>
   <stop offset="0.619608" style="stop-opacity:1; stop-color:#0F9164"/>
   <stop offset="1" style="stop-opacity:1; stop-color:#1EB400"/>
  </linearGradient>
  <linearGradient id="id3" gradientUnits="userSpaceOnUse" x1="239.6" y1="115.44" x2="453.46" y2="439.2">
   <stop offset="0" style="stop-opacity:1; stop-color:#006EC8"/>
   <stop offset="0.788235" style="stop-opacity:0.501961; stop-color:#0E8E6D"/>
   <stop offset="1" style="stop-opacity:0; stop-color:#1CAE11"/>
  </linearGradient>
 </defs>
 <g id="Layer_x0020_1">
  <metadata id="CorelCorpID_0Corel-Layer"/>
  <g id="_2698513904736">
   <path class="fil0" d="M720.98 337.99c-43.5,-114.67 -129.65,-233.25 -289.31,-337.99l-26.17 181.22c86.82,58.85 145.23,132.62 177.01,220.38l138.48 -63.62z"/>
   <path class="fil1" d="M685.87 323.65c-34.01,-77.49 -108.62,-176.33 -191.57,-239.35l-55.78 119.78c57.77,45 111.91,111.68 137.14,171.12 37.61,-19.89 72.59,-31.67 110.21,-51.55z"/>
   <path class="fil2" d="M585.35 400.28c-70.79,-205.16 -357.5,-366.87 -585.35,-324.08 67.01,85.39 134.03,170.78 201.04,256.17 94.04,-24.22 202.19,20.57 257.37,126.81l126.94 -58.89z"/>
   <path class="fil3" d="M552.19 379.99c-47.39,-107.12 -189.18,-226.45 -354.12,-260.59l38.03 172.25c95.67,2.65 187.39,60.48 229.67,133 33.11,-19.96 53.32,-24.7 86.42,-44.66z"/>
  </g>
  <g id="_2698513913952">
   <path class="fil4" d="M993.97 243.9l-39.44 0 0 -33.75 -101.24 0 0 33.75 -39.43 0 0 -69.45 16.36 0c9.19,-25.03 13.77,-53.22 13.77,-84.67l0 -34.55 132.93 0 0 119.22 17.06 0 0 69.45zm-66.02 -69.45l0 -81.14 -39.43 0 0 2.02c0,21.39 -3.69,47.78 -11.11,79.12l50.55 0zm237.01 -119.22l0 154.92 -46.08 0 0 -85.07 -58.97 85.07 -46.49 0 0 -154.92 46.3 0 0 85.72 59.41 -85.72 45.82 0zm130.38 129.38l-55.53 0 -7.97 25.53 -50.03 0 59.67 -154.92 53.69 0 59.45 154.92 -51.32 0 -7.94 -25.53zm-10.38 -33.54l-17.32 -55.68 -17.39 55.68 34.71 0zm193.67 -83.95c48.15,4.94 72.22,26.07 72.22,63.39 0,38.12 -24.08,59.32 -72.22,63.61l0 16.01 -44.53 0 0 -16.44c-48.15,-4 -72.22,-25.06 -72.22,-63.18 0,-37.39 24.08,-58.52 72.22,-63.39l0 -11.9 44.53 0 0 11.9zm0 94.55c7.72,-2.2 13.73,-6.1 17.98,-11.69 4.25,-5.59 6.39,-12.3 6.39,-20.12 0,-7.46 -2.18,-14.21 -6.54,-20.16 -4.4,-5.95 -10.34,-10.13 -17.83,-12.51l0 64.48zm-44.53 0.43l0 -64.04c-7.27,2.06 -13.18,6.1 -17.65,12.12 -4.47,6.02 -6.72,12.87 -6.72,20.55 0,7.18 2.22,13.63 6.65,19.33 4.47,5.7 10.38,9.7 17.72,12.04zm134.44 -29.32c0,-25.28 7.2,-44.96 21.64,-59.03 14.44,-14.1 34.53,-21.13 60.3,-21.13 26.4,0 46.75,6.92 61.03,20.73 14.29,13.85 21.42,33.25 21.42,58.16 0,18.1 -3.1,32.92 -9.34,44.5 -6.24,11.57 -15.29,20.59 -27.07,27.05 -11.82,6.45 -26.51,9.66 -44.12,9.66 -17.87,0 -32.68,-2.78 -44.42,-8.33 -11.7,-5.59 -21.23,-14.39 -28.5,-26.43 -7.27,-12.01 -10.93,-27.08 -10.93,-45.19zm48.96 0.11c0,15.61 2.99,26.87 8.94,33.68 5.98,6.81 14.11,10.24 24.37,10.24 10.52,0 18.72,-3.35 24.48,-10.02 5.8,-6.71 8.68,-18.68 8.68,-36.03 0,-14.56 -3.03,-25.21 -9.05,-31.91 -6.06,-6.74 -14.22,-10.1 -24.55,-10.1 -9.9,0 -17.87,3.42 -23.85,10.24 -6.02,6.82 -9.01,18.14 -9.01,33.9zm141.56 -77.67l81.53 0c17.76,0 31.05,4.11 39.92,12.37 8.82,8.26 13.25,20.01 13.25,35.27 0,15.65 -4.83,27.91 -14.47,36.71 -9.64,8.83 -24.37,13.23 -44.16,13.23l-26.88 0 0 57.34 -49.18 0 0 -154.92zm49.18 66.21l12.07 0c9.53,0 16.21,-1.62 20.05,-4.83 3.84,-3.21 5.76,-7.32 5.76,-12.33 0,-4.87 -1.66,-8.98 -5.02,-12.37 -3.32,-3.39 -9.6,-5.08 -18.83,-5.08l-14.03 0 0 34.62zm110.59 -66.21l64.62 0 24.66 94.26 24.7 -94.26 64.36 0 0 154.92 -40.1 0 0 -118.1 -30.94 118.1 -36.33 0 -30.87 -118.1 0 118.1 -40.1 0 0 -154.92zm198.24 81.78l76.69 0 0 33.32 -76.69 0 0 -33.32z"/>
   <path class="fil4" d="M958.03 260.72l89.53 0 0 143.42 -15.13 0 0 -126.59 -59.26 0 0 126.59 -15.13 0 0 -143.42zm114.36 143.42l0 -143.42 43.07 0c7.57,0 13.36,0.47 17.36,1.37 5.6,1.17 10.3,3.41 14.1,6.68 3.8,3.31 6.85,7.91 9.16,13.82 2.31,5.91 3.45,12.42 3.45,19.53 0,12.15 -3.08,22.47 -9.27,30.88 -6.16,8.45 -17.34,12.65 -33.48,12.65l-29.26 0 0 58.49 -15.13 0zm15.13 -75.31l29.47 0c9.77,0 16.67,-2.27 20.79,-6.84 4.09,-4.57 6.13,-10.98 6.13,-19.29 0,-5.98 -1.19,-11.12 -3.61,-15.39 -2.42,-4.27 -5.6,-7.11 -9.53,-8.48 -2.55,-0.83 -7.25,-1.27 -14.07,-1.27l-29.18 0 0 51.28zm91.44 75.31l0 -143.42 82.36 0 0 16.82 -67.23 0 0 44.07 62.93 0 0 16.83 -62.93 0 0 48.87 69.94 0 0 16.83 -85.07 0zm106.1 -143.42l89.53 0 0 143.42 -15.14 0 0 -126.59 -59.26 0 0 126.59 -15.13 0 0 -143.42zm114.36 143.42l0 -143.42 43.07 0c7.57,0 13.35,0.47 17.36,1.37 5.6,1.17 10.3,3.41 14.1,6.68 3.8,3.31 6.85,7.91 9.16,13.82 2.31,5.91 3.45,12.42 3.45,19.53 0,12.15 -3.08,22.47 -9.27,30.88 -6.16,8.45 -17.34,12.65 -33.48,12.65l-29.26 0 0 58.49 -15.14 0zm15.14 -75.31l29.47 0c9.77,0 16.67,-2.27 20.79,-6.84 4.09,-4.57 6.13,-10.98 6.13,-19.29 0,-5.98 -1.2,-11.12 -3.61,-15.39 -2.42,-4.27 -5.6,-7.11 -9.53,-8.48 -2.55,-0.83 -7.25,-1.27 -14.07,-1.27l-29.18 0 0 51.28zm91.44 75.31l0 -143.42 82.36 0 0 16.82 -67.23 0 0 44.07 62.93 0 0 16.83 -62.93 0 0 48.87 69.93 0 0 16.83 -85.07 0zm187.19 -50.31l15.13 4.81c-3.16,15.59 -8.84,27.44 -17.05,35.62 -8.21,8.18 -18.24,12.29 -30.11,12.29 -12.27,0 -22.25,-3.14 -29.95,-9.45 -7.7,-6.28 -13.54,-15.39 -17.55,-27.31 -4.01,-11.95 -6.03,-24.74 -6.03,-38.42 0,-14.92 2.26,-27.94 6.8,-39.06 4.54,-11.12 10.99,-19.56 19.36,-25.34 8.36,-5.78 17.58,-8.65 27.61,-8.65 11.42,0 21.01,3.64 28.76,10.95 7.78,7.31 13.2,17.56 16.25,30.78l-14.82 4.41c-2.63,-10.42 -6.48,-18.03 -11.5,-22.77 -5.02,-4.77 -11.34,-7.15 -18.96,-7.15 -8.74,0 -16.06,2.64 -21.93,7.91 -5.87,5.28 -10.01,12.39 -12.37,21.26 -2.39,8.92 -3.58,18.09 -3.58,27.54 0,12.19 1.41,22.84 4.22,31.92 2.81,9.11 7.2,15.89 13.14,20.4 5.95,4.51 12.38,6.74 19.3,6.74 8.44,0 15.56,-3.07 21.4,-9.18 5.84,-6.14 9.8,-15.22 11.87,-27.31zm115.05 0l15.13 4.81c-3.16,15.59 -8.84,27.44 -17.05,35.62 -8.2,8.18 -18.24,12.29 -30.11,12.29 -12.27,0 -22.25,-3.14 -29.95,-9.45 -7.7,-6.28 -13.54,-15.39 -17.55,-27.31 -4.01,-11.95 -6.03,-24.74 -6.03,-38.42 0,-14.92 2.26,-27.94 6.8,-39.06 4.54,-11.12 10.99,-19.56 19.36,-25.34 8.36,-5.78 17.58,-8.65 27.61,-8.65 11.42,0 21,3.64 28.76,10.95 7.78,7.31 13.2,17.56 16.25,30.78l-14.81 4.41c-2.63,-10.42 -6.48,-18.03 -11.5,-22.77 -5.02,-4.77 -11.34,-7.15 -18.96,-7.15 -8.73,0 -16.06,2.64 -21.93,7.91 -5.87,5.28 -10.01,12.39 -12.37,21.26 -2.39,8.92 -3.58,18.09 -3.58,27.54 0,12.19 1.41,22.84 4.22,31.92 2.82,9.11 7.2,15.89 13.14,20.4 5.95,4.51 12.37,6.74 19.3,6.74 8.44,0 15.56,-3.07 21.4,-9.18 5.84,-6.14 9.8,-15.22 11.87,-27.31zm25.68 -19.49c0,-23.77 5.1,-42.4 15.27,-55.85 10.17,-13.45 23.29,-20.17 39.38,-20.17 10.54,0 20.02,3.17 28.49,9.48 8.44,6.31 14.89,15.12 19.33,26.44 4.44,11.29 6.66,24.1 6.66,38.42 0,14.52 -2.33,27.54 -7.01,38.99 -4.67,11.49 -11.29,20.17 -19.83,26.04 -8.58,5.91 -17.82,8.85 -27.72,8.85 -10.75,0 -20.34,-3.27 -28.81,-9.78 -8.44,-6.51 -14.87,-15.39 -19.22,-26.67 -4.35,-11.25 -6.53,-23.17 -6.53,-35.75zm15.61 0.33c0,17.26 3.69,30.85 11.07,40.76 7.38,9.91 16.65,14.89 27.8,14.89 11.36,0 20.68,-5.01 28.04,-15.02 7.33,-10.01 10.99,-24.24 10.99,-42.67 0,-11.65 -1.57,-21.83 -4.7,-30.51 -3.13,-8.68 -7.73,-15.42 -13.75,-20.2 -6.05,-4.77 -12.82,-7.18 -20.34,-7.18 -10.67,0 -19.86,4.61 -27.56,13.82 -7.7,9.21 -11.55,24.57 -11.55,46.1zm112.93 69.47l0 -143.42 43.07 0c7.57,0 13.36,0.47 17.36,1.37 5.6,1.17 10.3,3.41 14.1,6.68 3.8,3.31 6.85,7.91 9.16,13.82 2.31,5.91 3.45,12.42 3.45,19.53 0,12.15 -3.08,22.47 -9.27,30.88 -6.16,8.45 -17.34,12.65 -33.48,12.65l-29.26 0 0 58.49 -15.13 0zm15.13 -75.31l29.47 0c9.77,0 16.67,-2.27 20.79,-6.84 4.09,-4.57 6.13,-10.98 6.13,-19.29 0,-5.98 -1.19,-11.12 -3.61,-15.39 -2.42,-4.27 -5.6,-7.11 -9.53,-8.48 -2.55,-0.83 -7.25,-1.27 -14.07,-1.27l-29.18 0 0 51.28z"/>
  </g>
 </g>
</svg>
