<?xml version="1.0" encoding="UTF-8"?>
<!DOCTYPE svg PUBLIC "-//W3C//DTD SVG 1.1//EN" "http://www.w3.org/Graphics/SVG/1.1/DTD/svg11.dtd">
<!-- Creator: CorelDRAW -->
<svg xmlns="http://www.w3.org/2000/svg" xml:space="preserve" width="39.5758mm" height="25.2051mm" version="1.1" style="shape-rendering:geometricPrecision; text-rendering:geometricPrecision; image-rendering:optimizeQuality; fill-rule:evenodd; clip-rule:evenodd"
viewBox="0 0 1423.95 906.89"
 xmlns:xlink="http://www.w3.org/1999/xlink"
 xmlns:xodm="http://www.corel.com/coreldraw/odm/2003">
 <defs>
  <style type="text/css">
   <![CDATA[
    .fil2 {fill:url(#id0)}
    .fil1 {fill:url(#id1)}
    .fil0 {fill:url(#id2)}
    .fil3 {fill:url(#id3)}
   ]]>
  </style>
  <linearGradient id="id0" gradientUnits="userSpaceOnUse" x1="399.54" y1="95.15" x2="713.95" y2="918.33">
   <stop offset="0" style="stop-opacity:1; stop-color:#006EC8"/>
   <stop offset="0.619608" style="stop-opacity:1; stop-color:#0F9164"/>
   <stop offset="1" style="stop-opacity:1; stop-color:#1EB400"/>
  </linearGradient>
  <linearGradient id="id1" gradientUnits="userSpaceOnUse" x1="1147.26" y1="707.17" x2="1140.7" y2="153.83">
   <stop offset="0" style="stop-opacity:1; stop-color:#006EC8"/>
   <stop offset="1" style="stop-opacity:1; stop-color:#1EB400"/>
  </linearGradient>
  <linearGradient id="id2" gradientUnits="userSpaceOnUse" xlink:href="#id1" x1="697.85" y1="105.11" x2="1350.83" y2="766.63">
  </linearGradient>
  <linearGradient id="id3" gradientUnits="userSpaceOnUse" x1="473.21" y1="228" x2="895.6" y2="867.44">
   <stop offset="0" style="stop-opacity:1; stop-color:#006EC8"/>
   <stop offset="0.788235" style="stop-opacity:0.501961; stop-color:#0E8E6D"/>
   <stop offset="1" style="stop-opacity:0; stop-color:#1CAE11"/>
  </linearGradient>
 </defs>
 <g id="Layer_x0020_1">
  <metadata id="CorelCorpID_0Corel-Layer"/>
  <path class="fil0" d="M1423.95 667.54c-85.91,-226.49 -256.07,-460.67 -571.4,-667.54l-51.7 357.93c171.48,116.23 286.83,261.94 349.6,435.26l273.5 -125.65z"/>
  <path class="fil1" d="M1354.62 639.23c-67.17,-153.04 -214.53,-348.26 -378.36,-472.72l-110.16 236.56c114.09,88.88 221.03,220.57 270.86,337.97 74.29,-39.28 143.37,-62.54 217.66,-101.82z"/>
  <path class="fil2" d="M1156.09 790.57c-139.81,-405.2 -706.07,-724.59 -1156.09,-640.07 132.35,168.65 264.71,337.29 397.06,505.94 185.74,-47.83 399.33,40.61 508.32,250.44l250.71 -116.32z"/>
  <path class="fil3" d="M1090.6 750.49c-93.6,-211.56 -373.63,-447.25 -699.39,-514.68l75.1 340.21c188.94,5.23 370.1,119.46 453.6,262.67 65.38,-39.42 105.3,-48.78 170.68,-88.2z"/>
 </g>
</svg>
